# xmcd CD database file
#
# Track frame offsets:
#	150
#	12170
#	20704
#	34892
#	44030
#	64243
#	73571
#	83929
#	99264
#	109661
#	120225
#	133636
#	148181
#	160446
#
# Disc length: 2251 seconds
#
# Revision: 0
# Processed by: cddbd v1.5.2PL0 Copyright (c) Steve Scherf et al.
# Submitted via: CDex 1.70beta2
#
DISCID=c308c90e
DTITLE=Patrola - Dlouhej den
DYEAR=1900
DGENRE=Country
TTITLE0=Počítej dál
TTITLE1=Krkavčí peří
TTITLE2=Jaro
TTITLE3=Já si nevzpomínám
TTITLE4=Světla
TTITLE5=Nedělní ráno
TTITLE6=Jak Ti říkat mám
TTITLE7=Jen jeď dál
TTITLE8=Cesta do neznáma
TTITLE9=Poslední prachy
TTITLE10=Dixi
TTITLE11=Přemítání
TTITLE12=Den s velkým D
TTITLE13=Irish cream
EXTD=
EXTT0=
EXTT1=
EXTT2=
EXTT3=
EXTT4=
EXTT5=
EXTT6=
EXTT7=
EXTT8=
EXTT9=
EXTT10=
EXTT11=
EXTT12=
EXTT13=
PLAYORDER=
